HIERARCHY
ROOT Hips
{
	OFFSET 0.000000 0.000000 0.000000 
	CHANNELS 6 Xposition Yposition Zposition Zrotation Yrotation Xrotation
	JOINT LeftUpLeg
	{
		OFFSET 1.363060 -1.794630 0.839290 
		CHANNELS 3 Zrotation Yrotation Xrotation
		JOINT LeftLeg
		{
			OFFSET 2.448110 -6.726130 0.000000 
			CHANNELS 3 Zrotation Yrotation Xrotation
			JOINT LeftFoot
			{
				OFFSET 2.562200 -7.039590 0.000000 
				CHANNELS 3 Zrotation Yrotation Xrotation
				JOINT LeftToeBase
				{
					OFFSET 0.157640 -0.433110 2.322550 
					CHANNELS 3 Zrotation Yrotation Xrotation
					End Site
					{
						OFFSET 0.000000 0.000000 0.000000 
					}
				}
			}
		}
	}
	JOINT RightUpLeg
	{
		OFFSET -1.305520 -1.794630 0.839290 
		CHANNELS 3 Zrotation Yrotation Xrotation
		JOINT RightLeg
		{
			OFFSET -2.542530 -6.985550 0.000000 
			CHANNELS 3 Zrotation Yrotation Xrotation
			JOINT RightFoot
			{
				OFFSET -2.568260 -7.056230 0.000000 
				CHANNELS 3 Zrotation Yrotation Xrotation
				JOINT RightToeBase
				{
					OFFSET -0.164730 -0.452590 2.363150 
					CHANNELS 3 Zrotation Yrotation Xrotation
					End Site
					{
						OFFSET 0.000000 0.000000 0.000000 
					}
				}
			}
		}
	}
	JOINT Spine
	{
		OFFSET 0.028270 2.035590 -0.193380 
		CHANNELS 3 Zrotation Yrotation Xrotation
		JOINT Spine1
		{
			OFFSET 0.056720 2.048850 -0.042750 
			CHANNELS 3 Zrotation Yrotation Xrotation
			JOINT Neck1
			{
				OFFSET -0.054170 1.746240 0.172020 
				CHANNELS 3 Zrotation Yrotation Xrotation
				JOINT Head
				{
					OFFSET 0.104070 1.761360 -0.123970 
					CHANNELS 3 Zrotation Yrotation Xrotation
					End Site
					{
						OFFSET 0.000000 0.000000 0.000000 
					}
				}
			}
			JOINT LeftArm
			{
				OFFSET 3.362410 1.200890 -0.311210 
				CHANNELS 3 Zrotation Yrotation Xrotation
				JOINT LeftForeArm
				{
					OFFSET 4.983000 -0.000000 -0.000000 
					CHANNELS 3 Zrotation Yrotation Xrotation
					JOINT LeftHand
					{
						OFFSET 3.483560 -0.000000 -0.000000 
						CHANNELS 3 Zrotation Yrotation Xrotation
						JOINT LeftHandIndex1
						{
							OFFSET 0.715260 -0.000000 -0.000000 
							CHANNELS 3 Zrotation Yrotation Xrotation
							End Site
							{
								OFFSET 0.000000 0.000000 0.000000 
							}
						}
					}
				}
			}
			JOINT RightArm
			{
				OFFSET -3.136600 1.374050 -0.404650 
				CHANNELS 3 Zrotation Yrotation Xrotation
				JOINT RightForeArm
				{
					OFFSET -5.241900 -0.000000 -0.000000 
					CHANNELS 3 Zrotation Yrotation Xrotation
					JOINT RightHand
					{
						OFFSET -3.444170 -0.000000 -0.000000 
						CHANNELS 3 Zrotation Yrotation Xrotation
						JOINT RightHandIndex1
						{
							OFFSET -0.622530 -0.000000 -0.000000 
							CHANNELS 3 Zrotation Yrotation Xrotation
							End Site
							{
								OFFSET 0.000000 0.000000 0.000000 
							}
						}
					}
				}
			}
		}
	}
}
MOTION
Frames: 7
Frame Time: 0.041667
1.067142 17.927716 -2.691171 -2.166828 4.656186 -0.784341 -10.101150 -1.632022 -1.633475 6.523684 16.161132 48.886710 3.779761 3.887487 39.374277 0.276500 -3.382400 -9.345400 20.670813 4.749572 -15.071450 -1.489405 -9.643027 25.508845 4.114090 -18.896735 0.366237 -0.015900 -0.814200 2.237600 2.822299 -1.468276 -2.069788 2.783088 -0.799215 -3.436380 1.584446 -0.686887 20.466029 -2.574300 0.384800 12.193100 -86.889811 13.825531 21.838676 22.774066 -33.030723 -6.116592 0.168693 0.450957 -7.282839 -7.125000 0.000000 0.000000 84.561918 -11.716332 7.273107 -16.765236 26.374034 -3.767951 0.045319 -0.591327 -4.927675 7.125000 0.000000 0.000000 
1.058511 17.925235 -2.556439 -2.587760 4.557947 -0.954851 -9.546071 -1.530208 -2.983214 7.252629 16.664917 51.274894 3.499552 4.022268 38.215812 0.248800 -3.209900 -8.863500 21.320228 4.616385 -14.423453 -1.459023 -9.589921 25.359266 4.117657 -18.883638 -0.014488 -0.015600 -0.805600 2.214100 2.934070 -1.386278 -2.016299 2.661195 -0.761764 -3.456345 1.557589 -0.687582 20.478332 -2.582500 0.380200 12.205200 -86.943872 13.678225 21.801917 22.752747 -33.012998 -6.108400 0.171589 0.450094 -7.253447 -7.125000 0.000000 0.000000 84.479963 -11.602903 7.456690 -16.844054 26.474749 -3.799838 0.046465 -0.592237 -5.030558 7.125000 0.000000 0.000000 
1.050276 17.923549 -2.423691 -2.978907 4.456093 -1.111104 -9.031952 -1.414092 -4.351553 7.978487 17.124062 53.604312 3.065808 4.211568 36.252243 0.254900 -3.248400 -8.971000 21.923687 4.438067 -13.795989 -1.424484 -9.528570 25.185750 4.101693 -18.804265 -0.351548 -0.014600 -0.781400 2.147600 3.042091 -1.302016 -1.963523 2.556553 -0.722009 -3.469699 1.503527 -0.679003 20.473263 -2.605300 0.378600 12.204600 -87.020954 13.518899 21.721697 22.715654 -32.978290 -6.092388 0.174730 0.448881 -7.223238 -7.125000 0.000000 0.000000 84.398322 -11.470583 7.585890 -16.904383 26.551726 -3.824410 0.047048 -0.592657 -5.096128 7.125000 0.000000 0.000000 
1.042339 17.923251 -2.292630 -3.350566 4.345007 -1.251422 -8.538820 -1.281643 -5.735373 8.685324 17.533108 55.830205 2.550918 4.455751 33.765680 0.288800 -3.456000 -9.551000 22.495154 4.223899 -13.183413 -1.384360 -9.456078 24.978763 4.070168 -18.672804 -0.647834 -0.013600 -0.751800 2.066100 3.150161 -1.214235 -1.906113 2.468951 -0.680089 -3.471396 1.447877 -0.671445 20.459193 -2.627800 0.375200 12.199000 -87.120677 13.326346 21.602910 22.652898 -32.916328 -6.064225 0.178675 0.447554 -7.202777 -7.125000 0.000000 0.000000 84.313338 -11.309361 7.687303 -16.954696 26.616415 -3.845406 0.048021 -0.593360 -5.149423 7.125000 0.000000 0.000000 
1.034700 17.924739 -2.163355 -3.682814 4.236980 -1.367123 -8.090960 -1.155390 -7.131599 9.358174 17.888914 57.904728 2.033776 4.780645 31.139627 0.310600 -3.582600 -9.905200 23.010208 3.970987 -12.596644 -1.339359 -9.372581 24.738006 4.027437 -18.504476 -0.901939 -0.012300 -0.715100 1.965200 3.251549 -1.125712 -1.859805 2.401588 -0.636084 -3.476547 1.385534 -0.655630 20.399464 -2.653100 0.373300 12.163800 -87.248099 13.118784 21.430247 22.557298 -32.817730 -6.019561 0.182534 0.445536 -7.171118 -7.125000 0.000000 0.000000 84.232055 -11.145775 7.746889 -16.994172 26.667055 -3.862214 0.048573 -0.593801 -5.180130 7.125000 0.000000 0.000000 
1.027060 17.927517 -2.035468 -3.998223 4.118667 -1.470827 -7.660831 -1.019483 -8.513919 9.979572 18.190102 59.788825 1.540203 5.146675 28.490004 0.333800 -3.713000 -10.270600 23.499514 3.703144 -12.013462 -1.290126 -9.279385 24.466554 3.979322 -18.320833 -1.120892 -0.010800 -0.670700 1.843100 3.351157 -1.034853 -1.814534 2.348146 -0.591073 -3.479077 1.356492 -0.656918 20.363144 -2.660800 0.365400 12.140400 -87.384157 12.902394 21.247249 22.445939 -32.701318 -5.967139 0.186411 0.443330 -7.171001 -7.125000 0.000000 0.000000 84.157619 -10.982672 7.791987 -17.037920 26.723378 -3.880771 0.048993 -0.594128 -5.208186 7.125000 0.000000 0.000000 
1.020115 17.931585 -1.908375 -4.260603 4.017682 -1.561076 -7.295691 -0.904490 -9.865068 10.534958 18.438210 61.452357 1.092547 5.526453 25.951416 0.359600 -3.852300 -10.661600 23.918324 3.404326 -11.438151 -1.238174 -9.178757 24.172119 3.928454 -18.128122 -1.322055 -0.009400 -0.626500 1.721600 3.432557 -0.950088 -1.782280 2.304150 -0.547740 -3.491182 1.311552 -0.653609 20.319823 -2.681200 0.361900 12.107400 -87.524345 12.698608 21.053638 22.317696 -32.564688 -5.906297 0.190173 0.440801 -7.167765 -7.125000 0.000000 0.000000 84.098476 -10.823385 7.793954 -17.067034 26.761407 -3.893286 0.049046 -0.594089 -5.211001 7.125000 0.000000 0.000000 
